<svg data-v-423bf9ae="" xmlns="http://www.w3.org/2000/svg" viewBox="0 0 494 90" class="iconLeft"><!----><!----><!----><g data-v-423bf9ae="" id="bd498493-8411-4a87-a408-814300ce03d9" fill="#2F190E" transform="matrix(5.714285714285714,0,0,5.714285714285714,106.62856130940574,-5.799999884196694)"><path d="M0.59 10.40C0.59 12.60 2.09 14.13 4.26 14.13C5.49 14.13 6.52 13.68 7.22 12.89L6.62 12.25C6.05 12.85 5.25 13.17 4.34 13.17C2.91 13.17 1.86 12.26 1.67 10.82L7.69 10.82C7.80 8.32 6.62 6.66 4.24 6.68C2.10 6.68 0.59 8.20 0.59 10.40ZM1.67 9.93C1.83 8.53 2.84 7.62 4.24 7.62C5.68 7.62 6.64 8.51 6.71 9.93ZM8.82 10.39C8.82 12.59 10.28 14.14 12.38 14.14C13.69 14.14 14.70 13.54 15.25 12.50L15.25 14.08L16.34 14.08L16.34 3.70L15.25 3.70L15.25 8.30C14.70 7.25 13.68 6.65 12.36 6.65C10.28 6.65 8.82 8.18 8.82 10.39ZM9.91 10.42C9.91 8.81 11.02 7.64 12.59 7.64C14.14 7.64 15.25 8.81 15.25 10.42C15.25 12.01 14.14 13.16 12.59 13.16C11.02 13.16 9.91 12.01 9.91 10.42ZM18.82 11.26C18.82 13.03 19.85 14.13 21.57 14.13C22.90 14.11 23.88 13.57 24.37 12.42L24.37 14.08L25.47 14.08L25.47 6.71L24.37 6.71L24.37 10.33C24.37 11.90 23.48 13.01 21.95 13.03C20.68 13.03 19.91 12.26 19.91 10.96L19.91 6.71L18.82 6.71ZM27.40 7.83L28.35 7.83L28.35 14.08L29.43 14.08L29.43 7.83L31.54 7.83L31.54 6.93L29.43 6.93L29.43 5.98C29.43 5.12 30.02 4.66 30.73 4.66C31.11 4.66 31.51 4.80 31.85 5.04L32.30 4.16C31.85 3.82 31.28 3.65 30.72 3.64C29.48 3.64 28.35 4.51 28.35 6.12L28.35 6.93L27.40 6.93ZM31.92 10.39C31.92 12.60 33.47 14.13 35.66 14.13C37.84 14.13 39.40 12.60 39.40 10.39C39.40 8.19 37.84 6.68 35.66 6.68C33.47 6.68 31.92 8.19 31.92 10.39ZM33.01 10.40C33.01 8.79 34.12 7.67 35.66 7.67C37.20 7.67 38.30 8.79 38.30 10.40C38.30 12.03 37.20 13.15 35.66 13.15C34.12 13.15 33.01 12.03 33.01 10.40ZM41.31 14.08L42.41 14.08L42.41 10.16C42.53 8.71 43.50 7.74 45.05 7.77L45.05 6.66C43.81 6.68 42.90 7.27 42.41 8.34L42.41 6.71L41.31 6.71ZM46.27 11.26C46.27 13.03 47.31 14.13 49.03 14.13C50.36 14.11 51.34 13.57 51.83 12.42L51.83 14.08L52.92 14.08L52.92 6.71L51.83 6.71L51.83 10.33C51.83 11.90 50.93 13.01 49.41 13.03C48.13 13.03 47.36 12.26 47.36 10.96L47.36 6.71L46.27 6.71ZM55.58 14.08L56.66 14.08L56.66 10.46C56.66 8.88 57.57 7.78 59.08 7.74C60.37 7.74 61.12 8.51 61.12 9.83L61.12 14.08L62.23 14.08L62.23 10.46C62.23 8.88 63.11 7.78 64.64 7.74C65.91 7.74 66.68 8.51 66.68 9.83L66.68 14.08L67.77 14.08L67.77 9.53C67.77 7.76 66.75 6.66 65.03 6.66C63.62 6.68 62.58 7.29 62.12 8.60C61.81 7.38 60.86 6.66 59.47 6.66C58.14 6.68 57.15 7.22 56.66 8.37L56.66 6.71L55.58 6.71Z"></path></g><!----><g data-v-423bf9ae="" id="25a18ff2-23e6-4771-8802-bf278db0e652" transform="matrix(2.8125,0,0,2.8125,0,0)" stroke="none" fill="#A92580"><path d="M11.579 32H32L21.789 14.314z"></path><circle cx="8.683" cy="8.683" r="8.683"></circle></g><!----></svg>